<?xml version="1.0" encoding="UTF-8"?>
<svg width="1049px" height="356px" viewBox="0 0 1049 356" version="1.1" xmlns="http://www.w3.org/2000/svg" xmlns:xlink="http://www.w3.org/1999/xlink">
    <title>logo_green</title>
    <defs>
        <linearGradient x1="0%" y1="-1.70862214e-22%" x2="0%" y2="100.052375%" id="linearGradient-1">
            <stop stop-color="#42E695" offset="0%"></stop>
            <stop stop-color="#3BB2B8" offset="100%"></stop>
        </linearGradient>
    </defs>
    <g id="Page-1" stroke="none" stroke-width="1" fill="none" fill-rule="evenodd">
        <g id="logo_green" transform="translate(6.320245, 0.788223)" fill-rule="nonzero">
            <g id="text-logo" transform="translate(0.000000, 158.139067)" fill="#087D8E" stroke="#087D8E" stroke-width="11.5269231">
                <g id="text-logo-path-0">
                    <path d="M59.9976346,119.841577 C81.7258846,119.841577 101.110327,107.815154 111.465346,90.2558077 L104.280231,90.2558077 C96.2690192,103.953635 81.7258846,113.155962 64.5123462,113.155962 C36.5979808,113.155962 11.6998269,89.0839038 9.01021154,59.6710385 C6.51271154,30.7576731 27.2419615,6.68561538 55.3100192,6.68561538 C69.68025,6.68561538 83.3972885,13.1983269 93.5986154,23.3996538 L107.296442,23.3996538 C96.4227115,9.35601923 79.0554808,0 59.9976346,0 C26.8961538,0 0,27.0690577 0,59.6710385 C0,92.7725192 26.8961538,119.841577 59.9976346,119.841577 Z M186.351923,119.841577 C219.107596,119.841577 246.195865,92.7725192 246.195865,59.6710385 C246.195865,27.0690577 219.107596,0 186.351923,0 C153.250442,0 126.354288,27.0690577 126.354288,59.6710385 C126.354288,92.7725192 153.250442,119.841577 186.351923,119.841577 Z M190.866635,113.155962 C162.952269,113.155962 138.054115,89.0839038 135.3645,59.6710385 C132.867,30.7576731 153.59625,6.68561538 181.664308,6.68561538 C209.424981,6.68561538 234.496038,30.7576731 236.993538,59.6710385 C239.663942,89.0839038 218.781,113.155962 190.866635,113.155962 Z M327.92175,119.841577 C360.677423,119.841577 387.746481,92.5996154 387.746481,59.6710385 L330.265558,59.6710385 L330.265558,66.3566538 L378.736269,66.3566538 C377.890962,92.9262115 357.834115,113.155962 332.436462,113.155962 C304.695,113.155962 279.623942,89.0839038 276.934327,59.6710385 C274.436827,30.5847692 295.319769,6.68561538 323.234135,6.68561538 C337.104865,6.68561538 350.821904,12.6988269 361.522731,23.3996538 L375.220558,23.3996538 C363.847327,8.68361538 346.307192,0 327.92175,0 C294.993173,0 267.924115,26.9153654 267.924115,59.6710385 C267.924115,92.7725192 294.993173,119.841577 327.92175,119.841577 Z M413.662846,0 L413.662846,118.170173 L420.348462,118.170173 L420.348462,27.0690577 L490.220827,119.841577 L490.220827,1.67140385 L483.535212,1.67140385 L483.535212,92.7725192 L413.662846,0 Z M533.677327,1.67140385 L523.648904,1.67140385 L523.648904,118.170173 L533.677327,118.170173 L533.677327,1.67140385 Z M566.9325,1.67140385 L566.9325,118.170173 L576.960923,118.170173 L576.960923,54.9834231 L629.101038,54.9834231 L629.101038,48.2978077 L576.960923,48.2978077 L576.960923,8.35701923 L637.304365,8.35701923 L637.304365,1.67140385 L566.9325,1.67140385 Z M660.704019,1.67140385 L660.704019,118.170173 L731.056673,118.170173 L731.056673,111.484558 L670.732442,111.484558 L670.732442,1.67140385 L660.704019,1.67140385 Z M794.243423,119.841577 C826.999096,119.841577 854.068154,92.7725192 854.068154,59.6710385 C854.068154,27.0690577 826.999096,0 794.243423,0 C761.141942,0 734.245788,27.0690577 734.245788,59.6710385 C734.245788,92.7725192 761.141942,119.841577 794.243423,119.841577 Z M798.758135,113.155962 C770.843769,113.155962 745.945615,89.0839038 743.256,59.6710385 C740.7585,30.7576731 761.48775,6.68561538 789.555808,6.68561538 C817.297269,6.68561538 842.368327,30.7576731 844.885038,59.6710385 C847.555442,89.0839038 826.6725,113.155962 798.758135,113.155962 Z M891.684346,97.4409231 L891.684346,1.67140385 L881.655923,1.67140385 L881.655923,119.841577 L931.625135,59.8439423 L931.625135,119.841577 L1030.08427,1.67140385 L1021.55435,1.67140385 L941.653558,97.4409231 L941.653558,47.9712115 L980.26875,1.67140385 L971.585135,1.67140385 L941.653558,37.6161923 L941.653558,1.67140385 L931.625135,1.67140385 L931.625135,49.6426154 L891.684346,97.4409231 Z" id="Shape"></path>
                </g>
            </g>
            <g id="tagline-b52c08b2-1543-4b7f-a663-fe5eb7a0bf7a-logo" transform="translate(525.649104, 316.918796)" fill="#42E695" stroke="#42E695" stroke-width="1.92115385">
                <g id="tagline-b52c08b2-1543-4b7f-a663-fe5eb7a0bf7a-logo-path-0">
                    <path d="M1.26979729,36.3098077 L1.00083575,36.3098077 C0.635816521,36.2521731 0.386066521,36.0408462 0.232374214,35.7910962 C0.0210472906,35.5221346 -0.0365873248,35.1571154 0.0210472906,34.7920962 L0.0210472906,34.7920962 L5.93820114,1.03742308 C5.97662421,0.710826923 6.14952806,0.461076923 6.39927806,0.24975 C6.64902806,0.0960576923 6.9179896,0 7.22537421,0 L7.22537421,0 L7.34064344,0 L25.8989896,0 C26.2640088,0 26.5329704,0.0960576923 26.7827204,0.345807692 C27.0516819,0.614769231 27.1477396,0.922153846 27.1477396,1.28717308 L27.1477396,1.28717308 C27.1477396,1.65219231 27.0516819,1.92115385 26.7827204,2.17090385 C26.5329704,2.43986538 26.2640088,2.53592308 25.8989896,2.53592308 L25.8989896,2.53592308 L8.26279729,2.53592308 L5.72687421,16.9061538 L20.7695088,16.9061538 C21.1345281,16.9061538 21.3842781,17.0022115 21.6532396,17.2711731 C21.9029896,17.5209231 22.0182588,17.7898846 22.0182588,18.1549038 L22.0182588,18.1549038 C22.0182588,18.5199231 21.9029896,18.8273077 21.6532396,19.0770577 C21.3842781,19.3460192 21.1345281,19.4420769 20.7695088,19.4420769 L20.7695088,19.4420769 L5.30422037,19.4420769 L2.49933575,35.2723846 C2.46091268,35.5797692 2.30722037,35.8295192 2.03825883,35.9832115 C1.78850883,36.1945385 1.51954729,36.3098077 1.26979729,36.3098077 L1.26979729,36.3098077 Z M28.6078165,36.3098077 L28.6078165,36.3098077 C28.2427973,36.2521731 27.9738358,36.0408462 27.8201434,35.7910962 C27.6088165,35.5221346 27.5703934,35.2723846 27.6088165,34.9073654 L27.6088165,34.9073654 L29.6452396,23.4957115 L29.6452396,23.4380769 L31.6624511,12.1224808 C31.7200858,11.7766731 31.9122011,11.5077115 32.1811627,11.2963846 C32.4309127,11.0850577 32.6998742,11.0466346 33.0648934,11.0850577 L33.0648934,11.0850577 C33.4299127,11.1426923 33.6796627,11.3540192 33.8909896,11.6037692 C34.0446819,11.8727308 34.1023165,12.1801154 34.0446819,12.5451346 L34.0446819,12.5451346 L33.1609511,17.6746154 C33.2185858,17.6361923 33.3146434,17.5209231 33.3722781,17.4632885 C33.4299127,17.4248654 33.4683358,17.3095962 33.5259704,17.2711731 L33.5259704,17.2711731 C34.1599511,16.4835 34.832355,15.7534615 35.6008165,15.0426346 C36.3884896,14.3125962 37.2145858,13.6401923 38.1367396,13.0638462 C39.0204704,12.4875 40.0194704,11.9687885 41.0953165,11.6037692 C42.1903742,11.23875 43.323855,11.0850577 44.5149704,11.0850577 L44.5149704,11.0850577 C44.8799896,11.0850577 45.1489511,11.2003269 45.3987011,11.4116538 C45.6676627,11.6614038 45.7637204,11.9687885 45.7637204,12.3338077 L45.7637204,12.3338077 C45.7637204,12.6988269 45.6676627,12.9677885 45.3987011,13.2175385 C45.1489511,13.4865 44.8799896,13.5825577 44.5149704,13.5825577 L44.5149704,13.5825577 C42.8627781,13.5249231 41.3642781,13.9475769 40.0194704,14.7736731 C38.6170281,15.6574038 37.3682781,16.6371923 36.2732204,17.7898846 L36.2732204,17.7898846 C35.1973742,18.981 34.3136434,20.1144808 33.6220281,21.2671731 C32.9496242,22.4582885 32.4309127,23.2843846 32.1811627,23.7454615 L32.1811627,23.7454615 C32.1235281,23.8991538 32.0658934,24.0144231 32.0274704,24.0528462 L32.0274704,24.0528462 L30.0486819,35.3108077 C29.9526242,35.9832115 29.5299704,36.3482308 28.7999319,36.3482308 L28.7999319,36.3482308 C28.7038742,36.3482308 28.6462396,36.3482308 28.6078165,36.3098077 Z M70.5081819,21.5745577 L70.5081819,21.5745577 C70.5081819,22.4582885 70.4505473,23.22675 70.296855,23.9567885 L70.296855,23.9567885 L69.1057396,23.6878269 L70.296855,23.9567885 C69.9894704,25.6666154 69.4323358,27.2803846 68.548605,28.7788846 C67.6648742,30.2773846 66.5698165,31.6414038 65.3210665,32.71725 C64.0723165,33.8699423 62.6698742,34.7536731 61.1329511,35.4260769 C59.557605,36.0984808 57.9630473,36.4058654 56.2916434,36.4058654 L56.2916434,36.4058654 L56.2532204,36.4058654 C54.7931434,36.4058654 53.4483358,36.1369038 52.1995858,35.5797692 C50.9124127,35.0610577 49.817355,34.3310192 48.9336242,33.3512308 L48.9336242,33.3512308 C48.0498934,32.3522308 47.319855,31.2763846 46.8587781,29.97 C46.3400665,28.6828269 46.071105,27.3380192 46.071105,25.8203077 L46.071105,25.8203077 C46.071105,24.9942115 46.1287396,24.22575 46.2824319,23.4957115 L46.2824319,23.4957115 C46.5898165,21.7858846 47.2237973,20.1144808 48.1075281,18.6159808 C48.9912588,17.1174808 50.0286819,15.8110962 51.315855,14.6776154 C52.564605,13.5249231 53.9670473,12.6411923 55.5231819,11.9687885 C57.0793165,11.2963846 58.6930858,10.989 60.3452781,10.989 L60.3452781,10.989 C61.8437781,10.989 63.1885858,11.23875 64.4949704,11.8150962 C65.7437204,12.3914423 66.8195665,13.1214808 67.7032973,14.1012692 L67.7032973,14.1012692 C68.5870281,15.0426346 69.3170665,16.1761154 69.7781434,17.4248654 C70.2584319,18.7120385 70.5081819,20.1144808 70.5081819,21.5745577 Z M67.8569896,23.4957115 L67.8569896,23.4957115 C67.9146242,23.1883269 67.9722588,22.8617308 68.0298934,22.4967115 C68.0683165,22.1893269 68.0683165,21.8819423 68.0683165,21.5745577 L68.0683165,21.5745577 C68.0298934,19.1923269 67.299855,17.2711731 65.8974127,15.7534615 C64.4949704,14.2549615 62.6314511,13.5249231 60.3452781,13.4865 L60.3452781,13.4865 L60.2492204,13.4865 C58.9428358,13.4865 57.6940858,13.73625 56.4069127,14.3125962 C55.1005281,14.8697308 53.9670473,15.5997692 52.9296242,16.5411346 C51.8345665,17.5209231 50.9508358,18.6159808 50.2207973,19.8647308 C49.4523358,21.1519038 48.9912588,22.4967115 48.7222973,23.9567885 L48.7222973,23.9567885 C48.6262396,24.5715577 48.568605,25.2055385 48.568605,25.8203077 L48.568605,25.8203077 C48.6262396,28.2025385 49.3562781,30.1236923 50.7395088,31.6414038 C52.1419511,33.1399038 53.9670473,33.9083654 56.2916434,33.966 L56.2916434,33.966 C57.5980281,33.966 58.8852011,33.71625 60.1915858,33.1399038 C61.4787588,32.6211923 62.6314511,31.8911538 63.7265088,30.9113654 C64.7447204,29.9123654 65.6284511,28.8365192 66.4161242,27.5301346 C67.1461627,26.3005962 67.6072396,24.9365769 67.8569896,23.4957115 Z M79.2302204,35.7334615 L79.2302204,35.7910962 C79.1725858,35.8295192 79.1725858,35.8295192 79.1725858,35.8295192 C79.1725858,35.8871538 79.1725858,35.8871538 79.1149511,35.9447885 L79.1149511,35.9447885 C79.1149511,35.9832115 79.1149511,35.9832115 79.0765281,35.9832115 L79.0765281,35.9832115 C79.0765281,36.0408462 79.0188934,36.0984808 78.9612588,36.1369038 L78.9612588,36.1369038 L78.9228358,36.1945385 L78.8075665,36.3098077 C78.7499319,36.3098077 78.7499319,36.3098077 78.7499319,36.3482308 L78.7499319,36.3482308 C78.7115088,36.3482308 78.6538742,36.3482308 78.5962396,36.4058654 L78.5962396,36.4058654 C78.5578165,36.4058654 78.5578165,36.4058654 78.5578165,36.4635 L78.5578165,36.4635 L78.4041242,36.4635 C78.3464896,36.5019231 78.3464896,36.5019231 78.3464896,36.5019231 L78.3464896,36.5019231 L78.1927973,36.5019231 L78.0775281,36.5019231 L78.0775281,36.5019231 L77.9238358,36.5019231 L77.8854127,36.5019231 C77.5203934,36.4635 77.2514319,36.2521731 77.040105,35.9832115 C76.8479896,35.7334615 76.790355,35.4260769 76.8479896,35.0610577 L76.8479896,35.0610577 L79.2686434,21.2671731 L79.2686434,21.2095385 L80.8824127,12.1224808 C80.9400473,11.7766731 81.1513742,11.5077115 81.4011242,11.2963846 C81.6700858,11.1426923 81.9774704,11.0850577 82.3424896,11.1426923 L82.3424896,11.1426923 C82.7075088,11.2003269 82.9572588,11.3540192 83.1685858,11.6037692 C83.3222781,11.8727308 83.3799127,12.1801154 83.3222781,12.5451346 L83.3222781,12.5451346 L83.0148934,14.5623462 C84.1099511,13.4865 85.3971242,12.6411923 86.7995665,12.0264231 C88.2020088,11.4500769 89.6428742,11.1426923 91.1990088,11.0850577 L91.1990088,11.0850577 C92.5053934,11.0850577 93.6388742,11.2963846 94.7915665,11.7766731 C95.8674127,12.23775 96.8087781,12.8525192 97.5964511,13.6401923 L97.5964511,13.6401923 C98.4225473,14.4662885 99.0373165,15.4460769 99.4599704,16.5411346 L99.4599704,16.5411346 C100.593451,14.9273654 102.053528,13.6401923 103.82099,12.6027692 C105.530817,11.6037692 107.394336,11.1426923 109.411547,11.0850577 L109.411547,11.0850577 C110.717932,11.0850577 111.909047,11.2963846 112.984893,11.7766731 C114.079951,12.23775 115.021317,12.8525192 115.789778,13.6401923 L115.789778,13.6401923 C116.577451,14.4086538 117.19222,15.3500192 117.672509,16.4450769 C118.075951,17.5209231 118.287278,18.6736154 118.287278,19.8647308 L118.287278,19.8647308 C118.287278,20.4218654 118.229643,21.0558462 118.133586,21.6706154 L118.133586,21.6706154 L115.69372,35.5221346 C115.578451,36.1945385 115.175009,36.5019231 114.44497,36.5019231 L114.44497,36.5019231 L114.233643,36.5019231 C113.868624,36.4635 113.618874,36.2521731 113.465182,35.9832115 C113.253855,35.7334615 113.19622,35.4260769 113.253855,35.0610577 L113.253855,35.0610577 L115.69372,21.2671731 C115.751355,20.9982115 115.751355,20.7484615 115.789778,20.5371346 C115.789778,20.3258077 115.789778,20.1144808 115.789778,19.8647308 L115.789778,19.8647308 C115.751355,18.0396346 115.175009,16.5411346 114.022317,15.3500192 C112.888836,14.1973269 111.332701,13.6401923 109.411547,13.5825577 L109.411547,13.5825577 C108.31649,13.5825577 107.279067,13.7938846 106.241643,14.1973269 C105.165797,14.6199808 104.224432,15.1963269 103.398336,15.9263654 C102.514605,16.6371923 101.784567,17.4632885 101.227432,18.4046538 C100.593451,19.3844423 100.190009,20.4218654 99.9786819,21.5169231 L99.9786819,21.5169231 C99.9786819,21.5745577 99.9786819,21.5745577 99.9786819,21.5745577 C99.9210473,21.6129808 99.9210473,21.6129808 99.9210473,21.6706154 L99.9210473,21.6706154 L97.4811819,35.5221346 C97.3851242,36.0984808 97.0777396,36.4058654 96.5590281,36.5019231 L96.5590281,36.5019231 L96.5590281,36.5019231 L96.3477011,36.5019231 L96.2900665,36.5019231 L96.2900665,36.5019231 L96.1363742,36.5019231 L96.0403165,36.5019231 C95.6752973,36.4635 95.4063358,36.2521731 95.2526434,35.9832115 C95.0413165,35.7334615 95.0028934,35.4260769 95.0413165,35.0610577 L95.0413165,35.0610577 L97.4811819,21.2671731 C97.4811819,21.2095385 97.4811819,21.1519038 97.5388165,21.1134808 L97.5388165,21.1134808 C97.5964511,20.9021538 97.5964511,20.6908269 97.6348742,20.4795 C97.6348742,20.2681731 97.6348742,20.0568462 97.6348742,19.8647308 L97.6348742,19.8647308 C97.5964511,18.0396346 97.020105,16.5411346 95.8674127,15.3500192 C94.7339319,14.1973269 93.1777973,13.6401923 91.1990088,13.5825577 L91.1990088,13.5825577 C90.1231627,13.5825577 89.0857396,13.7938846 88.0483165,14.1973269 C86.9532588,14.6199808 86.0118934,15.1963269 85.1473742,15.9263654 C84.2636434,16.6948269 83.533605,17.5209231 82.9572588,18.5199231 C82.3424896,19.4997115 81.9198358,20.5947692 81.7085088,21.6706154 L81.7085088,21.6706154 L79.2686434,35.5221346 C79.2686434,35.6374038 79.2686434,35.6758269 79.2302204,35.7334615 L79.2302204,35.7334615 Z M137.633297,36.4635 L137.42197,36.4635 C137.056951,36.4058654 136.807201,36.1945385 136.595874,35.9447885 C136.384547,35.6758269 136.326913,35.3108077 136.384547,34.9457885 L136.384547,34.9457885 L142.359336,1.19111538 C142.397759,0.864519231 142.551451,0.614769231 142.820413,0.403442308 C143.070163,0.24975 143.339124,0.153692308 143.588874,0.153692308 L143.588874,0.153692308 L143.646509,0.153692308 L150.389759,0.153692308 C152.618297,0.153692308 154.693143,0.518711538 156.614297,1.28717308 C158.477817,2.07484615 160.091586,3.11226923 161.494028,4.4955 L161.494028,4.4955 C162.89647,5.89794231 163.933893,7.51171154 164.702355,9.33680769 C165.432393,11.2003269 165.797413,13.2175385 165.797413,15.3500192 L165.797413,15.3500192 C165.797413,15.8687308 165.797413,16.3874423 165.739778,16.9061538 C165.701355,17.4248654 165.586086,17.9435769 165.547663,18.5199231 L165.547663,18.5199231 C165.067374,20.9982115 164.183643,23.3420192 162.89647,25.5129231 C161.590086,27.6838269 159.995528,29.5665577 158.074374,31.1611154 C156.15322,32.7748846 154.02074,34.0620577 151.696143,35.0034231 C149.352336,35.9832115 146.91247,36.4635 144.434182,36.4635 L144.434182,36.4635 L137.690932,36.4635 L137.690932,36.4635 L137.633297,36.4635 Z M150.389759,2.68961538 L144.683932,2.68961538 L139.189432,33.9083654 L144.434182,33.9083654 C146.547451,33.9083654 148.679932,33.5049231 150.754778,32.6788269 C152.829624,31.8335192 154.693143,30.7000385 156.40297,29.2399615 C158.112797,27.8375192 159.51524,26.1276923 160.706355,24.22575 C161.916682,22.3045962 162.685143,20.2681731 163.050163,18.0972692 L163.050163,18.0972692 C163.107797,17.6361923 163.14622,17.1559038 163.203855,16.6948269 C163.26149,16.23375 163.26149,15.8110962 163.26149,15.3500192 L163.26149,15.3500192 C163.26149,13.5249231 162.954105,11.8150962 162.320124,10.2589615 C161.705355,8.76046154 160.821624,7.41565385 159.726567,6.26296154 C158.593086,5.18711538 157.248278,4.30338462 155.692143,3.63098077 C154.078374,2.997 152.310913,2.68961538 150.389759,2.68961538 L150.389759,2.68961538 Z M177.420393,36.4058654 L177.420393,36.4058654 C175.921893,36.4058654 174.557874,36.1369038 173.328336,35.5797692 C172.079586,35.0610577 170.984528,34.3310192 170.100797,33.3512308 L170.100797,33.3512308 C168.237278,31.3724423 167.295913,28.8749423 167.295913,25.8779423 L167.295913,25.8779423 C167.295913,24.9942115 167.353547,24.22575 167.50724,23.5341346 L167.50724,23.5341346 C167.814624,21.8243077 168.39097,20.1721154 169.274701,18.6736154 C170.158432,17.1559038 171.195855,15.8687308 172.444605,14.7160385 C173.674143,13.6401923 175.076586,12.7564615 176.63272,12.0840577 C178.188855,11.4116538 179.802624,11.0850577 181.454817,11.0850577 L181.454817,11.0850577 C182.972528,11.0850577 184.317336,11.3540192 185.566086,11.8727308 C186.814836,12.4490769 187.890682,13.1599038 188.774413,14.1589038 L188.774413,14.1589038 C189.043374,14.4662885 189.350759,14.7736731 189.600509,15.1386923 C189.86947,15.5037115 190.080797,15.8687308 190.272913,16.23375 L190.272913,16.23375 L191.002951,12.1224808 C191.060586,11.7766731 191.214278,11.5077115 191.521663,11.2963846 C191.790624,11.0850577 192.040374,11.0466346 192.405393,11.0850577 L192.405393,11.0850577 C192.770413,11.1426923 193.039374,11.3540192 193.23149,11.6037692 C193.442817,11.8727308 193.500451,12.1801154 193.442817,12.5451346 L193.442817,12.5451346 L189.408393,35.3684423 C189.293124,36.0408462 188.889682,36.4058654 188.159643,36.4058654 L188.159643,36.4058654 L187.948317,36.4058654 C187.583297,36.3482308 187.333547,36.1369038 187.160643,35.8871538 C186.968528,35.6374038 186.910893,35.3108077 186.968528,34.9457885 L186.968528,34.9457885 L187.525663,31.6414038 C186.23849,33.0822692 184.682355,34.2349615 182.972528,35.0610577 C181.262701,35.9447885 179.37997,36.3482308 177.420393,36.4058654 L177.420393,36.4058654 Z M169.947105,23.9567885 L169.947105,23.9567885 C169.793413,24.5331346 169.735778,25.2055385 169.735778,25.8779423 L169.735778,25.8779423 C169.735778,27.0690577 169.947105,28.1064808 170.312124,29.0862692 C170.677143,30.0852692 171.195855,30.9113654 171.925893,31.5837692 C172.598297,32.3138077 173.366759,32.8709423 174.308124,33.2935962 C175.230278,33.71625 176.267701,33.9083654 177.420393,33.9083654 L177.420393,33.9083654 C178.707567,33.9083654 180.013951,33.6586154 181.301124,33.0822692 C182.607509,32.5635577 183.74099,31.8335192 184.836047,30.9113654 C185.87347,29.97 186.757201,28.8749423 187.525663,27.5877692 C188.255701,26.3390192 188.716778,24.9942115 188.98574,23.5341346 L188.98574,23.5341346 L188.98574,23.5341346 C189.081797,22.8617308 189.139432,22.1893269 189.139432,21.6129808 L189.139432,21.6129808 C189.081797,19.2883846 188.409393,17.3672308 187.006951,15.8687308 C185.604509,14.3702308 183.798624,13.6401923 181.454817,13.5825577 L181.454817,13.5825577 L181.416393,13.5825577 C180.110009,13.5825577 178.822836,13.8515192 177.574086,14.4086538 C176.267701,14.985 175.13422,15.7150385 174.096797,16.6371923 C173.059374,17.5785577 172.175643,18.6736154 171.445605,19.9031538 C170.677143,21.2095385 170.216067,22.5543462 169.947105,23.9567885 Z M204.182067,10.989 L210.71399,10.989 C211.079009,10.989 211.34797,11.0850577 211.59772,11.3540192 C211.866682,11.6037692 211.96274,11.9303654 211.96274,12.2953846 L211.96274,12.2953846 C211.96274,12.6411923 211.866682,12.9101538 211.59772,13.1599038 C211.34797,13.4288654 211.079009,13.5249231 210.71399,13.5249231 L210.71399,13.5249231 L203.759413,13.5249231 L200.397393,32.1024808 C200.339759,32.1601154 200.339759,32.3138077 200.339759,32.4675 L200.339759,32.4675 C200.397393,33.3512308 200.85847,33.7546731 201.742201,33.8123077 L201.742201,33.8123077 C202.10722,33.8123077 202.414605,33.9083654 202.683567,34.1773269 C202.933317,34.4270769 203.048586,34.6960385 203.048586,35.0610577 L203.048586,35.0610577 C203.048586,35.4260769 202.933317,35.7334615 202.683567,35.9832115 C202.414605,36.2521731 202.10722,36.3482308 201.742201,36.3482308 L201.742201,36.3482308 L201.742201,36.3482308 C200.647143,36.3482308 199.72499,35.9832115 198.937317,35.21475 L198.937317,35.21475 C198.168855,34.4270769 197.803836,33.5625577 197.803836,32.4675 L197.803836,32.4675 C197.803836,32.3138077 197.803836,32.1985385 197.86147,32.0448462 C197.86147,31.9487885 197.86147,31.8335192 197.86147,31.6798269 L197.86147,31.6798269 L201.165855,13.5249231 L197.86147,13.5249231 C197.496451,13.5249231 197.189067,13.4288654 196.920105,13.1599038 C196.670355,12.9101538 196.555086,12.6411923 196.555086,12.2953846 L196.555086,12.2953846 C196.555086,11.9303654 196.670355,11.6037692 196.920105,11.3540192 C197.189067,11.0850577 197.496451,10.989 197.86147,10.989 L197.86147,10.989 L201.646143,10.989 L203.240701,1.07584615 L203.240701,1.07584615 C203.298336,0.710826923 203.509663,0.461076923 203.759413,0.24975 C204.028374,0.0384230769 204.393393,-2.95943825e-15 204.758413,0.0384230769 L204.758413,0.0384230769 C205.123432,0.0960576923 205.373182,0.307384615 205.584509,0.557134615 C205.795836,0.826096154 205.834259,1.13348077 205.795836,1.4985 L205.795836,1.4985 L204.182067,10.989 Z M224.354182,36.4058654 L224.354182,36.4058654 C222.855682,36.4058654 221.510874,36.1369038 220.262124,35.5797692 C219.013374,35.0610577 217.937528,34.3310192 217.053797,33.3512308 L217.053797,33.3512308 C215.171067,31.3724423 214.248913,28.8749423 214.248913,25.8779423 L214.248913,25.8779423 C214.248913,24.9942115 214.306547,24.22575 214.46024,23.5341346 L214.46024,23.5341346 C214.767624,21.8243077 215.34397,20.1721154 216.20849,18.6736154 C217.09222,17.1559038 218.129643,15.8687308 219.378393,14.7160385 C220.627143,13.6401923 222.029586,12.7564615 223.58572,12.0840577 C225.141855,11.4116538 226.755624,11.0850577 228.407817,11.0850577 L228.407817,11.0850577 C229.906317,11.0850577 231.251124,11.3540192 232.499874,11.8727308 C233.748624,12.4490769 234.843682,13.1599038 235.727413,14.1589038 L235.727413,14.1589038 C235.977163,14.4662885 236.284547,14.7736731 236.553509,15.1386923 C236.803259,15.5037115 237.014586,15.8687308 237.225913,16.23375 L237.225913,16.23375 L237.955951,12.1224808 C237.994374,11.7766731 238.167278,11.5077115 238.474663,11.2963846 C238.724413,11.0850577 238.993374,11.0466346 239.358393,11.0850577 L239.358393,11.0850577 C239.723413,11.1426923 239.973163,11.3540192 240.18449,11.6037692 C240.395817,11.8727308 240.43424,12.1801154 240.395817,12.5451346 L240.395817,12.5451346 L236.342182,35.3684423 C236.246124,36.0408462 235.82347,36.4058654 235.093432,36.4058654 L235.093432,36.4058654 L234.882105,36.4058654 C234.536297,36.3482308 234.267336,36.1369038 234.113643,35.8871538 C233.902317,35.6374038 233.844682,35.3108077 233.902317,34.9457885 L233.902317,34.9457885 L234.478663,31.6414038 C233.172278,33.0822692 231.616143,34.2349615 229.906317,35.0610577 C228.19649,35.9447885 226.33297,36.3482308 224.354182,36.4058654 L224.354182,36.4058654 Z M216.900105,23.9567885 L216.900105,23.9567885 C216.727201,24.5331346 216.688778,25.2055385 216.688778,25.8779423 L216.688778,25.8779423 C216.688778,27.0690577 216.900105,28.1064808 217.245913,29.0862692 C217.610932,30.0852692 218.129643,30.9113654 218.859682,31.5837692 C219.532086,32.3138077 220.319759,32.8709423 221.241913,33.2935962 C222.183278,33.71625 223.220701,33.9083654 224.354182,33.9083654 L224.354182,33.9083654 C225.660567,33.9083654 226.94774,33.6586154 228.254124,33.0822692 C229.541297,32.5635577 230.69399,31.8335192 231.769836,30.9113654 C232.807259,29.97 233.69099,28.8749423 234.478663,27.5877692 C235.208701,26.3390192 235.669778,24.9942115 235.919528,23.5341346 L235.919528,23.5341346 L235.919528,23.5341346 C236.034797,22.8617308 236.092432,22.1893269 236.092432,21.6129808 L236.092432,21.6129808 C236.034797,19.2883846 235.362393,17.3672308 233.959951,15.8687308 C232.557509,14.3702308 230.732413,13.6401923 228.407817,13.5825577 L228.407817,13.5825577 L228.350182,13.5825577 C227.063009,13.5825577 225.756624,13.8515192 224.507874,14.4086538 C223.220701,14.985 222.08722,15.7150385 221.049797,16.6371923 C220.012374,17.5785577 219.128643,18.6736154 218.398605,19.9031538 C217.610932,21.2095385 217.149855,22.5543462 216.900105,23.9567885 Z M263.737836,10.989 L270.269759,10.989 C270.634778,10.989 270.884528,11.0850577 271.15349,11.3540192 C271.40324,11.6037692 271.518509,11.9303654 271.518509,12.2953846 L271.518509,12.2953846 C271.518509,12.6411923 271.40324,12.9101538 271.15349,13.1599038 C270.884528,13.4288654 270.634778,13.5249231 270.269759,13.5249231 L270.269759,13.5249231 L263.315182,13.5249231 L259.953163,32.1024808 C259.895528,32.1601154 259.895528,32.3138077 259.895528,32.4675 L259.895528,32.4675 C259.953163,33.3512308 260.41424,33.7546731 261.29797,33.8123077 L261.29797,33.8123077 C261.66299,33.8123077 261.970374,33.9083654 262.220124,34.1773269 C262.489086,34.4270769 262.585143,34.6960385 262.585143,35.0610577 L262.585143,35.0610577 C262.585143,35.4260769 262.489086,35.7334615 262.220124,35.9832115 C261.970374,36.2521731 261.66299,36.3482308 261.29797,36.3482308 L261.29797,36.3482308 L261.29797,36.3482308 C260.202913,36.3482308 259.280759,35.9832115 258.493086,35.21475 L258.493086,35.21475 C257.724624,34.4270769 257.359605,33.5625577 257.359605,32.4675 L257.359605,32.4675 C257.359605,32.3138077 257.359605,32.1985385 257.398028,32.0448462 C257.398028,31.9487885 257.398028,31.8335192 257.398028,31.6798269 L257.398028,31.6798269 L260.721624,13.5249231 L257.398028,13.5249231 C257.033009,13.5249231 256.725624,13.4288654 256.475874,13.1599038 C256.206913,12.9101538 256.110855,12.6411923 256.110855,12.2953846 L256.110855,12.2953846 C256.110855,11.9303654 256.206913,11.6037692 256.475874,11.3540192 C256.725624,11.0850577 257.033009,10.989 257.398028,10.989 L257.398028,10.989 L261.182701,10.989 L262.79647,1.07584615 L262.79647,1.07584615 C262.854105,0.710826923 263.065432,0.461076923 263.315182,0.24975 C263.584143,0.0384230769 263.949163,-2.95943825e-15 264.29497,0.0384230769 L264.29497,0.0384230769 C264.65999,0.0960576923 264.928951,0.307384615 265.140278,0.557134615 C265.332393,0.826096154 265.390028,1.13348077 265.332393,1.4985 L265.332393,1.4985 L263.737836,10.989 Z M299.778682,21.5745577 L299.778682,21.5745577 C299.778682,22.4582885 299.740259,23.22675 299.567355,23.9567885 L299.567355,23.9567885 L298.37624,23.6878269 L299.567355,23.9567885 C299.25997,25.6666154 298.702836,27.2803846 297.819105,28.7788846 C296.935374,30.2773846 295.840317,31.6414038 294.591567,32.71725 C293.342817,33.8699423 291.959586,34.7536731 290.403451,35.4260769 C288.847317,36.0984808 287.233547,36.4058654 285.562143,36.4058654 L285.562143,36.4058654 L285.52372,36.4058654 C284.063643,36.4058654 282.718836,36.1369038 281.470086,35.5797692 C280.182913,35.0610577 279.087855,34.3310192 278.204124,33.3512308 L278.204124,33.3512308 C277.320393,32.3522308 276.590355,31.2763846 276.129278,29.97 C275.610567,28.6828269 275.360817,27.3380192 275.360817,25.8203077 L275.360817,25.8203077 C275.360817,24.9942115 275.39924,24.22575 275.552932,23.4957115 L275.552932,23.4957115 C275.879528,21.7858846 276.494297,20.1144808 277.378028,18.6159808 C278.261759,17.1174808 279.299182,15.8110962 280.586355,14.6776154 C281.835105,13.5249231 283.237547,12.6411923 284.793682,11.9687885 C286.349817,11.2963846 287.963586,10.989 289.615778,10.989 L289.615778,10.989 C291.114278,10.989 292.478297,11.23875 293.76547,11.8150962 C295.01422,12.3914423 296.109278,13.1214808 296.973797,14.1012692 L296.973797,14.1012692 C297.857528,15.0426346 298.587567,16.1761154 299.048643,17.4248654 C299.528932,18.7120385 299.778682,20.1144808 299.778682,21.5745577 Z M297.146701,23.4957115 L297.146701,23.4957115 C297.185124,23.1883269 297.242759,22.8617308 297.300393,22.4967115 C297.338817,22.1893269 297.338817,21.8819423 297.338817,21.5745577 L297.338817,21.5745577 C297.300393,19.1923269 296.570355,17.2711731 295.167913,15.7534615 C293.76547,14.2549615 291.901951,13.5249231 289.615778,13.4865 L289.615778,13.4865 L289.51972,13.4865 C288.213336,13.4865 286.964586,13.73625 285.677413,14.3125962 C284.371028,14.8697308 283.237547,15.5997692 282.200124,16.5411346 C281.105067,17.5209231 280.221336,18.6159808 279.510509,19.8647308 C278.722836,21.1519038 278.261759,22.4967115 277.992797,23.9567885 L277.992797,23.9567885 C277.89674,24.5715577 277.839105,25.2055385 277.839105,25.8203077 L277.839105,25.8203077 C277.89674,28.2025385 278.626778,30.1236923 280.02922,31.6414038 C281.412451,33.1399038 283.237547,33.9083654 285.562143,33.966 L285.562143,33.966 C286.868528,33.966 288.155701,33.71625 289.462086,33.1399038 C290.749259,32.6211923 291.901951,31.8911538 292.997009,30.9113654 C294.034432,29.9123654 294.898951,28.8365192 295.686624,27.5301346 C296.416663,26.3005962 296.87774,24.9365769 297.146701,23.4957115 Z M320.527143,36.4635 L320.315817,36.4635 C319.970009,36.4058654 319.701047,36.1945385 319.48972,35.9447885 C319.278393,35.6758269 319.23997,35.3108077 319.278393,34.9457885 L319.278393,34.9457885 L325.253182,1.19111538 C325.310817,0.864519231 325.464509,0.614769231 325.714259,0.403442308 C325.98322,0.24975 326.23297,0.153692308 326.501932,0.153692308 L326.501932,0.153692308 L326.540355,0.153692308 L333.283605,0.153692308 C335.531355,0.153692308 337.606201,0.518711538 339.508143,1.28717308 C341.390874,2.07484615 342.985432,3.11226923 344.387874,4.4955 L344.387874,4.4955 C345.790317,5.89794231 346.82774,7.51171154 347.615413,9.33680769 C348.32624,11.2003269 348.691259,13.2175385 348.691259,15.3500192 L348.691259,15.3500192 C348.691259,15.8687308 348.691259,16.3874423 348.652836,16.9061538 C348.595201,17.4248654 348.499143,17.9435769 348.441509,18.5199231 L348.441509,18.5199231 C347.980432,20.9982115 347.096701,23.3420192 345.790317,25.5129231 C344.503143,27.6838269 342.889374,29.5665577 340.96822,31.1611154 C339.047067,32.7748846 336.914586,34.0620577 334.58999,35.0034231 C332.246182,35.9832115 329.825528,36.4635 327.328028,36.4635 L327.328028,36.4635 L320.584778,36.4635 L320.584778,36.4635 L320.527143,36.4635 Z M333.283605,2.68961538 L327.577778,2.68961538 L322.083278,33.9083654 L327.328028,33.9083654 C329.460509,33.9083654 331.573778,33.5049231 333.648624,32.6788269 C335.72347,31.8335192 337.606201,30.7000385 339.316028,29.2399615 C341.025855,27.8375192 342.428297,26.1276923 343.619413,24.22575 C344.810528,22.3045962 345.57899,20.2681731 345.944009,18.0972692 L345.944009,18.0972692 C346.001643,17.6361923 346.059278,17.1559038 346.097701,16.6948269 C346.155336,16.23375 346.155336,15.8110962 346.155336,15.3500192 L346.155336,15.3500192 C346.155336,13.5249231 345.847951,11.8150962 345.21397,10.2589615 C344.599201,8.76046154 343.71547,7.41565385 342.620413,6.26296154 C341.486932,5.18711538 340.142124,4.30338462 338.58599,3.63098077 C336.97222,2.997 335.204759,2.68961538 333.283605,2.68961538 L333.283605,2.68961538 Z M351.131124,25.7626731 L351.131124,25.7626731 C351.131124,24.9365769 351.188759,24.1681154 351.342451,23.4380769 L351.342451,23.4380769 C351.649836,21.72825 352.283817,20.0568462 353.167547,18.5583462 C354.032067,17.0598462 355.06949,15.7534615 356.375874,14.6199808 C357.663047,13.5249231 359.06549,12.6411923 360.679259,11.9687885 C362.293028,11.2963846 363.94522,10.989 365.655047,10.989 L365.655047,10.989 C367.172759,10.989 368.55599,11.23875 369.862374,11.7766731 C371.111124,12.3338077 372.18697,13.0638462 373.128336,14.0436346 L373.128336,14.0436346 C374.069701,15.0426346 374.780528,16.1184808 375.29924,17.4248654 C375.817951,18.7120385 376.086913,20.0568462 376.086913,21.5745577 L376.086913,21.5745577 C376.086913,21.8243077 376.086913,22.0356346 376.086913,22.2469615 C376.029278,22.4582885 376.029278,22.6504038 375.990855,22.9193654 L375.990855,22.9193654 C375.990855,22.977 375.990855,23.0154231 375.990855,23.0730577 C375.93322,23.1306923 375.93322,23.1883269 375.93322,23.22675 L375.93322,23.22675 C375.875586,23.4957115 375.721893,23.7454615 375.510567,23.8991538 C375.260817,24.1104808 374.991855,24.22575 374.742105,24.22575 L374.742105,24.22575 L353.724682,24.22575 C353.686259,24.4755 353.628624,24.72525 353.628624,24.9942115 C353.628624,25.2631731 353.628624,25.5129231 353.628624,25.7626731 L353.628624,25.7626731 C353.628624,26.973 353.839951,28.0104231 354.20497,28.9902115 C354.550778,29.97 355.127124,30.8537308 355.857163,31.5261346 C356.529567,32.2561731 357.355663,32.8325192 358.354663,33.2359615 C359.334451,33.6586154 360.371874,33.8699423 361.56299,33.8699423 L361.56299,33.8699423 C363.330451,33.8699423 365.040278,33.4472885 366.654047,32.5635577 C368.248605,31.7374615 369.651047,30.6039808 370.746105,29.2015385 L370.746105,29.2015385 C370.995855,28.9325769 371.264817,28.7788846 371.629836,28.72125 C371.93722,28.6828269 372.244605,28.7788846 372.513567,29.0478462 L372.513567,29.0478462 C372.763317,29.2399615 372.917009,29.5089231 372.974643,29.8163077 C373.032278,30.1236923 372.917009,30.4502885 372.667259,30.7000385 L372.667259,30.7000385 C371.360874,32.4098654 369.708682,33.7546731 367.787528,34.7920962 C365.80874,35.8295192 363.733893,36.3482308 361.56299,36.3482308 L361.56299,36.3482308 L361.505355,36.3482308 C360.006855,36.3482308 358.604413,36.0984808 357.355663,35.5221346 C356.06849,35.0034231 354.973432,34.2733846 354.032067,33.2935962 L354.032067,33.2935962 C353.109913,32.3138077 352.379874,31.21875 351.918797,29.9123654 C351.400086,28.6251923 351.131124,27.2803846 351.131124,25.7626731 Z M365.655047,13.4865 L365.655047,13.4865 C364.463932,13.4865 363.330451,13.6786154 362.177759,14.1012692 C360.986643,14.5239231 359.910797,15.0810577 358.911797,15.8110962 C357.932009,16.5411346 357.048278,17.4248654 356.279817,18.4046538 C355.492143,19.3844423 354.877374,20.4795 354.397086,21.6706154 L354.397086,21.6706154 L373.589413,21.6706154 L373.589413,21.5745577 C373.589413,20.3834423 373.397297,19.2883846 373.032278,18.3085962 C372.609624,17.3095962 372.033278,16.4835 371.360874,15.7534615 C370.68847,15.0810577 369.862374,14.5239231 368.882586,14.1012692 C367.883586,13.6786154 366.846163,13.4865 365.655047,13.4865 Z M379.775528,25.6089808 L379.775528,25.6089808 C379.775528,24.8405192 379.813951,24.1681154 379.967643,23.4957115 L379.967643,23.4957115 C380.29424,21.72825 380.909009,20.0568462 381.850374,18.5583462 C382.772528,17.0598462 383.92522,15.7534615 385.270028,14.6199808 C386.614836,13.5249231 388.113336,12.6411923 389.78474,11.9687885 C391.436932,11.2963846 393.146759,10.989 394.91422,10.989 L394.91422,10.989 C396.470355,10.989 397.930432,11.23875 399.217605,11.7190385 C400.52399,12.1801154 401.715105,12.9101538 402.694893,13.7938846 L402.694893,13.7938846 C402.963855,14.0436346 403.059913,14.3125962 403.117547,14.6199808 C403.117547,14.985 403.002278,15.2923846 402.752528,15.5613462 L402.752528,15.5613462 C402.483567,15.8110962 402.233817,15.9647885 401.926432,15.9647885 C401.561413,16.0224231 401.292451,15.9263654 401.042701,15.6574038 L401.042701,15.6574038 C400.255028,14.985 399.371297,14.4086538 398.391509,14.0436346 C397.354086,13.6786154 396.220605,13.4865 394.91422,13.4865 L394.91422,13.4865 C393.454143,13.4865 392.070913,13.73625 390.66847,14.3125962 C389.266028,14.8697308 387.959643,15.5997692 386.826163,16.5411346 C385.67347,17.5209231 384.751317,18.6159808 383.963643,19.8647308 C383.195182,21.1519038 382.67647,22.4967115 382.407509,23.8991538 L382.407509,23.8991538 C382.311451,24.5331346 382.253817,25.0902692 382.253817,25.6089808 L382.253817,25.6089808 C382.253817,26.8000962 382.465143,27.8951538 382.887797,28.8749423 C383.29124,29.8739423 383.867586,30.7576731 384.636047,31.4877115 C385.42372,32.1985385 386.307451,32.7748846 387.402509,33.1975385 C388.478355,33.6586154 389.631047,33.8699423 390.91822,33.8699423 L390.91822,33.8699423 C392.109336,33.8699423 393.358086,33.6586154 394.549201,33.2359615 C395.740317,32.8709423 396.893009,32.3138077 397.968855,31.5837692 L397.968855,31.5837692 L397.968855,31.5837692 C398.237817,31.4300769 398.545201,31.3724423 398.91022,31.4300769 C399.27524,31.4877115 399.52499,31.6798269 399.678682,31.9487885 L399.678682,31.9487885 C399.851586,32.1985385 399.947643,32.5251346 399.890009,32.8325192 C399.851586,33.1975385 399.640259,33.4472885 399.371297,33.6586154 L399.371297,33.6586154 C398.122547,34.4847115 396.77774,35.1571154 395.375297,35.6374038 C393.934432,36.0984808 392.41672,36.3482308 390.91822,36.3482308 L390.91822,36.3482308 L390.91822,36.3482308 C389.304451,36.3482308 387.805951,36.0984808 386.461143,35.5221346 C385.116336,35.0034231 383.92522,34.2733846 382.92622,33.2935962 L382.92622,33.2935962 C381.946432,32.3138077 381.17797,31.1226923 380.601624,29.8163077 C380.025278,28.5291346 379.775528,27.1266923 379.775528,25.6089808 Z M409.64947,36.4058654 L409.438143,36.4058654 C409.073124,36.3482308 408.823374,36.1369038 408.669682,35.8871538 C408.458355,35.6374038 408.40072,35.3108077 408.458355,35.0034231 L408.458355,35.0034231 L412.454355,12.0264231 C412.492778,11.6614038 412.704105,11.4116538 412.973067,11.2003269 C413.222817,11.0466346 413.530201,10.9313654 413.89522,10.989 L413.89522,10.989 C414.26024,11.0466346 414.529201,11.23875 414.721317,11.5077115 C414.89422,11.7766731 414.932643,12.1224808 414.89422,12.4875 L414.89422,12.4875 L410.840586,35.4260769 C410.782951,35.6758269 410.629259,35.9447885 410.417932,36.0984808 C410.168182,36.3098077 409.89922,36.4058654 409.64947,36.4058654 L409.64947,36.4058654 Z M416.239028,4.97578846 L416.027701,6.10926923 C415.931643,6.78167308 415.50899,7.14669231 414.778951,7.14669231 L414.778951,7.14669231 L414.567624,7.14669231 C414.202605,7.10826923 413.952855,6.89694231 413.799163,6.62798077 C413.587836,6.37823077 413.530201,6.07084615 413.587836,5.70582692 L413.587836,5.70582692 L413.799163,4.4955 C413.856797,4.18811538 414.048913,3.93836538 414.317874,3.72703846 C414.567624,3.51571154 414.89422,3.47728846 415.201605,3.51571154 L415.201605,3.51571154 C415.566624,3.57334615 415.874009,3.78467308 416.085336,4.03442308 C416.239028,4.30338462 416.277451,4.61076923 416.239028,4.97578846 L416.239028,4.97578846 Z M418.160182,32.8325192 L418.160182,32.8325192 C417.89122,32.5635577 417.795163,32.3138077 417.833586,31.9487885 C417.833586,31.6414038 418.00649,31.3148077 418.25624,31.0650577 L418.25624,31.0650577 L418.25624,31.0650577 C418.525201,30.7960962 418.832586,30.6424038 419.197605,30.6039808 C419.562624,30.5463462 419.812374,30.6424038 420.081336,30.9113654 L420.081336,30.9113654 L420.081336,30.9113654 C420.792163,31.5837692 421.791163,32.2561731 423.020701,32.9285769 C424.269451,33.6009808 425.614259,33.9083654 427.074336,33.9083654 L427.074336,33.9083654 L427.074336,33.9083654 C428.054124,33.9083654 429.053124,33.7546731 429.975278,33.5049231 C430.859009,33.2359615 431.685105,32.8709423 432.357509,32.4098654 L432.357509,32.4098654 L432.357509,32.4098654 C433.817586,31.4300769 434.643682,30.3926538 434.797374,29.2015385 L434.797374,29.2015385 L434.797374,29.2015385 C435.008701,28.1064808 434.605259,27.1266923 433.567836,26.3390192 L433.567836,26.3390192 L433.567836,26.3390192 C433.049124,25.9355769 432.357509,25.5705577 431.49299,25.2631731 C430.609259,24.9365769 429.610259,24.6868269 428.534413,24.4755 L428.534413,24.4755 L428.534413,24.4755 L428.476778,24.4178654 C427.38172,24.22575 426.344297,23.9567885 425.422143,23.5917692 C424.480778,23.2843846 423.654682,22.8617308 422.982278,22.3430192 L422.982278,22.3430192 L422.982278,22.3430192 C422.309874,21.8243077 421.791163,21.1519038 421.426143,20.3834423 C421.061124,19.5957692 420.945855,18.7120385 421.118759,17.73225 L421.118759,17.73225 L421.118759,17.73225 C421.272451,16.7524615 421.675893,15.8110962 422.348297,14.9273654 C423.020701,14.1012692 423.808374,13.3712308 424.692105,12.7948846 L424.692105,12.7948846 L424.692105,12.7948846 C425.575836,12.23775 426.555624,11.7766731 427.689105,11.4500769 C428.784163,11.1426923 429.87922,10.989 431.070336,10.989 L431.070336,10.989 L431.070336,10.989 C432.722528,10.989 434.12497,11.2963846 435.277663,11.9303654 C436.411143,12.6027692 437.390932,13.2175385 438.274663,13.8515192 L438.274663,13.8515192 L438.274663,13.8515192 C438.543624,14.0052115 438.697317,14.2549615 438.697317,14.6199808 C438.697317,14.985 438.582047,15.2923846 438.332297,15.5613462 L438.332297,15.5613462 L438.332297,15.5613462 C438.063336,15.8110962 437.813586,16.0224231 437.448567,16.0800577 C437.083547,16.1184808 436.833797,16.0800577 436.564836,15.9263654 L436.564836,15.9263654 L436.564836,15.9263654 C435.681105,15.2923846 434.797374,14.7160385 433.87522,14.1973269 C432.933855,13.6786154 431.838797,13.4288654 430.609259,13.4288654 L430.609259,13.4288654 L430.609259,13.4288654 C429.725528,13.4288654 428.841797,13.5249231 428.015701,13.7938846 C427.170393,14.0436346 426.459567,14.4086538 425.787163,14.8313077 L425.787163,14.8313077 L425.787163,14.8313077 C424.480778,15.7150385 423.75074,16.6371923 423.597047,17.73225 L423.597047,17.73225 L423.597047,17.73225 C423.50099,18.2509615 423.539413,18.7120385 423.712317,19.0770577 C423.866009,19.4997115 424.231028,19.9031538 424.692105,20.2681731 L424.692105,20.2681731 L424.692105,20.2681731 C425.729528,21.0558462 427.285663,21.6129808 429.302874,21.978 L429.302874,21.978 L429.302874,21.978 L429.418143,22.0356346 C430.609259,22.2469615 431.74274,22.4967115 432.722528,22.8617308 C433.721528,23.22675 434.605259,23.6878269 435.316086,24.2641731 L435.316086,24.2641731 L435.316086,24.2641731 C436.103759,24.8405192 436.680105,25.5129231 437.025913,26.3390192 C437.390932,27.1651154 437.506201,28.1064808 437.294874,29.2015385 L437.294874,29.2015385 L437.294874,29.2015385 C437.141182,30.2773846 436.680105,31.21875 435.98849,32.1024808 C435.316086,32.9862115 434.48999,33.7546731 433.510201,34.3886538 L433.510201,34.3886538 L433.510201,34.3886538 C431.49299,35.7334615 429.206817,36.4058654 426.651682,36.4058654 L426.651682,36.4058654 L426.651682,36.4058654 C424.74974,36.3482308 423.020701,35.9447885 421.63747,35.1571154 C420.177393,34.3886538 419.043913,33.6009808 418.160182,32.8325192 L418.160182,32.8325192 Z M443.826797,36.4058654 L443.61547,36.4058654 C443.250451,36.3482308 443.000701,36.1369038 442.847009,35.8871538 C442.635682,35.6374038 442.578047,35.3108077 442.635682,35.0034231 L442.635682,35.0034231 L446.631682,12.0264231 C446.689317,11.6614038 446.881432,11.4116538 447.150393,11.2003269 C447.400143,11.0466346 447.72674,10.9313654 448.091759,10.989 L448.091759,10.989 C448.437567,11.0466346 448.706528,11.23875 448.917855,11.5077115 C449.071547,11.7766731 449.129182,12.1224808 449.071547,12.4875 L449.071547,12.4875 L445.017913,35.4260769 C444.97949,35.6758269 444.806586,35.9447885 444.61447,36.0984808 C444.345509,36.3098077 444.095759,36.4058654 443.826797,36.4058654 L443.826797,36.4058654 Z M450.416355,4.97578846 L450.205028,6.10926923 C450.10897,6.78167308 449.686317,7.14669231 448.956278,7.14669231 L448.956278,7.14669231 L448.764163,7.14669231 C448.399143,7.10826923 448.130182,6.89694231 447.97649,6.62798077 C447.765163,6.37823077 447.72674,6.07084615 447.765163,5.70582692 L447.765163,5.70582692 L447.97649,4.4955 C448.034124,4.18811538 448.245451,3.93836538 448.495201,3.72703846 C448.764163,3.51571154 449.071547,3.47728846 449.378932,3.51571154 L449.378932,3.51571154 C449.743951,3.57334615 450.051336,3.78467308 450.262663,4.03442308 C450.416355,4.30338462 450.47399,4.61076923 450.416355,4.97578846 L450.416355,4.97578846 Z M477.293297,21.5745577 L477.293297,21.5745577 C477.293297,22.4582885 477.235663,23.22675 477.08197,23.9567885 L477.08197,23.9567885 L475.890855,23.6878269 L477.08197,23.9567885 C476.774586,25.6666154 476.19824,27.2803846 475.314509,28.7788846 C474.430778,30.2773846 473.33572,31.6414038 472.106182,32.71725 C470.857432,33.8699423 469.45499,34.7536731 467.898855,35.4260769 C466.34272,36.0984808 464.728951,36.4058654 463.076759,36.4058654 L463.076759,36.4058654 L463.019124,36.4058654 C461.578259,36.4058654 460.21424,36.1369038 458.984701,35.5797692 C457.678317,35.0610577 456.583259,34.3310192 455.699528,33.3512308 L455.699528,33.3512308 C454.835009,32.3522308 454.10497,31.2763846 453.624682,29.97 C453.10597,28.6828269 452.85622,27.3380192 452.85622,25.8203077 L452.85622,25.8203077 C452.85622,24.9942115 452.913855,24.22575 453.067547,23.4957115 L453.067547,23.4957115 C453.374932,21.7858846 453.989701,20.1144808 454.873432,18.6159808 C455.757163,17.1174808 456.794586,15.8110962 458.10097,14.6776154 C459.330509,13.5249231 460.732951,12.6411923 462.289086,11.9687885 C463.84522,11.2963846 465.45899,10.989 467.111182,10.989 L467.111182,10.989 C468.628893,10.989 469.973701,11.23875 471.260874,11.8150962 C472.509624,12.3914423 473.604682,13.1214808 474.488413,14.1012692 L474.488413,14.1012692 C475.372143,15.0426346 476.102182,16.1761154 476.563259,17.4248654 C477.024336,18.7120385 477.293297,20.1144808 477.293297,21.5745577 Z M474.642105,23.4957115 L474.642105,23.4957115 C474.69974,23.1883269 474.738163,22.8617308 474.795797,22.4967115 C474.853432,22.1893269 474.853432,21.8819423 474.853432,21.5745577 L474.853432,21.5745577 C474.795797,19.1923269 474.065759,17.2711731 472.663317,15.7534615 C471.260874,14.2549615 469.397355,13.5249231 467.111182,13.4865 L467.111182,13.4865 L467.015124,13.4865 C465.727951,13.4865 464.479201,13.73625 463.172817,14.3125962 C461.885643,14.8697308 460.732951,15.5997692 459.695528,16.5411346 C458.619682,17.5209231 457.735951,18.6159808 457.005913,19.8647308 C456.21824,21.1519038 455.757163,22.4967115 455.507413,23.9567885 L455.507413,23.9567885 C455.392143,24.5715577 455.35372,25.2055385 455.35372,25.8203077 L455.35372,25.8203077 C455.392143,28.2025385 456.122182,30.1236923 457.524624,31.6414038 C458.927067,33.1399038 460.732951,33.9083654 463.076759,33.966 L463.076759,33.966 C464.363932,33.966 465.670317,33.71625 466.95749,33.1399038 C468.263874,32.6211923 469.397355,31.8911538 470.492413,30.9113654 C471.529836,29.9123654 472.413567,28.8365192 473.182028,27.5301346 C473.912067,26.3005962 474.373143,24.9365769 474.642105,23.4957115 Z M501.768797,34.9457885 L501.768797,34.9457885 L504.151028,21.2671731 C504.208663,20.9982115 504.208663,20.7484615 504.266297,20.5371346 C504.266297,20.3258077 504.266297,20.1144808 504.266297,19.8647308 L504.266297,19.8647308 C504.208663,18.0396346 503.632317,16.5411346 502.55647,15.3500192 C501.403778,14.1973269 499.847643,13.6401923 497.888067,13.5825577 L497.888067,13.5825577 C496.793009,13.5825577 495.755586,13.7938846 494.718163,14.1973269 C493.68074,14.6199808 492.739374,15.1963269 491.855643,15.9263654 C490.971913,16.6371923 490.261086,17.4632885 489.68474,18.4622885 C489.06997,19.4420769 488.647317,20.5371346 488.43599,21.6129808 L488.43599,21.6129808 L486.053759,35.4260769 C486.053759,35.4645 486.053759,35.4645 486.053759,35.5221346 C485.996124,35.5797692 485.996124,35.5797692 485.996124,35.6374038 L485.996124,35.6374038 L485.957701,35.6758269 C485.957701,35.7334615 485.957701,35.7334615 485.957701,35.7334615 C485.900067,35.7910962 485.900067,35.7910962 485.900067,35.8295192 L485.900067,35.8295192 L485.842432,35.8871538 C485.784797,35.9447885 485.784797,35.9447885 485.784797,35.9447885 C485.784797,35.9832115 485.784797,35.9832115 485.746374,36.0408462 L485.746374,36.0408462 C485.68874,36.0408462 485.68874,36.0408462 485.68874,36.0984808 L485.68874,36.0984808 C485.68874,36.0984808 485.631105,36.1369038 485.592682,36.1945385 L485.592682,36.1945385 C485.535047,36.1945385 485.535047,36.1945385 485.535047,36.2521731 L485.535047,36.2521731 C485.477413,36.2521731 485.43899,36.2521731 485.381355,36.3098077 L485.381355,36.3098077 C485.32372,36.3098077 485.32372,36.3098077 485.32372,36.3482308 L485.32372,36.3482308 L485.170028,36.3482308 C485.112393,36.4058654 485.112393,36.4058654 485.07397,36.4058654 L485.07397,36.4058654 L484.958701,36.4058654 L484.862643,36.4058654 L484.862643,36.4058654 L484.708951,36.4058654 L484.593682,36.4058654 C484.228663,36.3482308 483.978913,36.1369038 483.82522,35.8871538 C483.613893,35.6374038 483.556259,35.3108077 483.613893,34.9457885 L483.613893,34.9457885 L486.053759,21.2671731 L486.053759,21.2095385 L487.609893,12.1224808 C487.667528,11.7766731 487.859643,11.5077115 488.128605,11.2963846 C488.378355,11.1426923 488.704951,11.0850577 489.06997,11.1426923 L489.06997,11.1426923 C489.415778,11.2003269 489.742374,11.3540192 489.93449,11.6037692 C490.107393,11.8727308 490.145817,12.1801154 490.107393,12.5451346 L490.107393,12.5451346 L489.742374,14.5623462 C490.81822,13.4865 492.124605,12.6411923 493.527047,12.0264231 C494.92949,11.4500769 496.370355,11.1426923 497.888067,11.0850577 L497.888067,11.0850577 C499.17524,11.0850577 500.366355,11.2963846 501.461413,11.7766731 C502.55647,12.23775 503.478624,12.8525192 504.266297,13.6401923 L504.266297,13.6401923 C505.034759,14.4086538 505.66874,15.3500192 506.129817,16.3874423 C506.533259,17.4632885 506.744586,18.6159808 506.744586,19.8647308 L506.744586,19.8647308 C506.744586,20.4218654 506.706163,21.0558462 506.590893,21.6706154 L506.590893,21.6706154 L504.151028,35.4260769 C504.05497,36.0984808 503.632317,36.4058654 502.902278,36.4058654 L502.902278,36.4058654 L502.748586,36.4058654 C502.383567,36.3482308 502.133817,36.1369038 501.980124,35.8871538 C501.768797,35.6374038 501.711163,35.3108077 501.768797,34.9457885 Z" id="Shape"></path>
                </g>
            </g>
            <g id="path-01" transform="translate(399.683548, 0.000000)" fill="url(#linearGradient-1)">
                <path d="M209.732534,14.8365279 C197.750866,3.98106478 181.563045,-1.32360725 165.307335,0.281951772 C153.838454,1.41544804 141.561045,8.59306846 127.773323,22.2246251 C122.560768,27.3783152 117.886997,32.7289954 114.062288,37.4243193 C110.237524,32.7289954 105.563808,27.3783152 100.351253,22.2246251 C86.5638688,8.59306846 74.2864596,1.41544804 62.8175239,0.281951772 C46.5658744,-1.32265825 30.3737106,3.98106478 18.3917683,14.8368655 C6.53151687,25.5826736 0,40.3948389 0,56.5454019 C0,72.6960196 6.53184537,87.5085225 18.3920421,98.253993 C28.9656344,107.834221 42.8168568,113.090558 57.0947452,113.090558 C58.996711,113.090558 60.9072544,112.997493 62.8175239,112.808916 C74.2864688,111.675091 86.5638688,104.497462 100.351253,90.8662425 C105.563699,85.7125981 110.237415,80.3618084 114.062288,75.6663202 C117.887107,80.3618084 122.560878,85.7125981 127.773323,90.8662334 C141.561045,104.497452 153.838454,111.675082 165.307335,112.808907 C167.217596,112.997493 169.127865,113.090558 171.030114,113.090558 C185.306506,113.090558 199.159553,107.833601 209.732543,98.2539839 C221.592731,87.5085225 228.124576,72.6960196 228.124576,56.5454019 C228.124576,40.3948389 221.592731,25.582336 209.732534,14.8365279 Z M60.6669388,91.049244 L60.6666559,91.049244 C50.5459639,92.0481286 40.489101,88.7698963 33.0726616,82.0507424 C25.8454651,75.5022439 21.865038,66.4445394 21.865038,56.5454019 C21.865038,46.6463191 25.8454651,37.5886146 33.0726616,31.0404538 C39.6125278,25.1149453 48.2052962,21.8644529 57.0846073,21.8644529 C58.2745234,21.8644529 59.4708908,21.9229897 60.6669297,22.0409484 C71.6068262,23.1224231 88.3958187,39.5521832 101.300224,56.5454019 C88.3955449,73.5384016 71.606224,89.9684354 60.6669388,91.049244 Z M195.051249,82.0507424 C187.635192,88.7698872 177.579224,92.0500174 167.45792,91.049244 C156.518352,89.9684354 139.729031,73.5384016 126.824343,56.5454019 C139.72842,39.5524569 156.517741,23.1224231 167.45792,22.0409484 C177.578001,21.0393355 187.635192,24.3206337 195.051249,31.0401161 C202.278828,37.5886146 206.258927,46.6463191 206.258927,56.5454019 C206.258927,66.4445394 202.278828,75.5022439 195.051249,82.0507424 Z" id="Shape"></path>
            </g>
        </g>
    </g>
</svg>